<?xml version="1.0" encoding="utf-8"?>
<!-- Generator: Adobe Illustrator 19.0.0, SVG Export Plug-In . SVG Version: 6.00 Build 0)  -->
<svg version="1.1" id="Layer_1" xmlns="http://www.w3.org/2000/svg" xmlns:xlink="http://www.w3.org/1999/xlink" x="0px" y="0px"
	 viewBox="0 0 100 71" style="enable-background:new 0 0 100 71;" xml:space="preserve">
<style type="text/css">
	.st0{fill:#E5E5E5;}
</style>
<g id="XMLID_202_">
	<polygon id="XMLID_222_" class="st0" points="26.6,56.6 26.6,49.9 33.2,49.9 39.9,49.9 39.9,56.6 39.9,63.2 33.2,63.2 26.6,63.2 	
		"/>
	<polygon id="XMLID_218_" class="st0" points="13.2,43.3 13.2,36.6 19.9,36.6 26.6,36.6 26.6,43.3 26.6,49.9 19.9,49.9 13.2,49.9 	
		"/>
	<polygon id="XMLID_179_" class="st0" points="19.9,30 26.6,30 26.6,33.3 26.6,36.6 19.9,36.6 13.2,36.6 13.2,33.3 13.2,30 	"/>
	<polygon id="XMLID_180_" class="st0" points="39.9,56.6 39.9,49.9 43.2,49.9 46.5,49.9 46.5,56.6 46.5,63.2 43.2,63.2 39.9,63.2 	
		"/>
	<polygon id="XMLID_240_" class="st0" points="79.8,16.7 79.8,23.3 73.2,23.3 66.5,23.3 66.5,16.7 66.5,10 73.2,10 79.8,10 	"/>
	<polygon id="XMLID_239_" class="st0" points="93.1,30 93.1,36.6 86.5,36.6 79.8,36.6 79.8,30 79.8,23.3 86.5,23.3 93.1,23.3 	"/>
	<polygon id="XMLID_238_" class="st0" points="86.5,43.3 79.8,43.3 79.8,40 79.8,36.6 86.5,36.6 93.1,36.6 93.1,40 93.1,43.3 	"/>
	<polygon id="XMLID_237_" class="st0" points="66.5,16.7 66.5,23.3 63.2,23.3 59.8,23.3 59.8,16.7 59.8,10 63.2,10 66.5,10 	"/>
	<path id="XMLID_236_" class="st0" d="M79.8,10c7.4,0,13.3,6,13.3,13.3H79.8V10z"/>
	<path id="XMLID_315_" class="st0" d="M26.6,63.2c-7.4,0-13.3-6-13.3-13.3h13.3V63.2z"/>
</g>
</svg>
