<?xml version="1.0" encoding="utf-8"?>
<!-- Generator: Adobe Illustrator 19.0.0, SVG Export Plug-In . SVG Version: 6.00 Build 0)  -->
<svg version="1.1" id="Layer_1" xmlns="http://www.w3.org/2000/svg" xmlns:xlink="http://www.w3.org/1999/xlink" x="0px" y="0px"
	 viewBox="-255 361 100 71" style="enable-background:new -255 361 100 71;" xml:space="preserve">
<style type="text/css">
	.st0{fill:#FFFFFF;}
</style>
<polygon id="XMLID_179_" class="st0" points="-237.1,391 -230.4,391 -230.4,394.3 -230.4,397.6 -237.1,397.6 -243.8,397.6 
	-243.8,394.3 -243.8,391 "/>
<polygon id="XMLID_180_" class="st0" points="-217.1,417.6 -217.1,410.9 -213.8,410.9 -210.5,410.9 -210.5,417.6 -210.5,424.2 
	-213.8,424.2 -217.1,424.2 "/>
<polygon id="XMLID_240_" class="st0" points="-177.2,377.7 -177.2,384.3 -183.8,384.3 -190.5,384.3 -190.5,377.7 -190.5,371 
	-183.8,371 -177.2,371 "/>
<polygon id="XMLID_239_" class="st0" points="-163.9,391 -163.9,397.6 -170.5,397.6 -177.2,397.6 -177.2,391 -177.2,384.3 
	-170.5,384.3 -163.9,384.3 "/>
<polygon id="XMLID_238_" class="st0" points="-170.5,404.3 -177.2,404.3 -177.2,401 -177.2,397.6 -170.5,397.6 -163.9,397.6 
	-163.9,401 -163.9,404.3 "/>
<polygon id="XMLID_237_" class="st0" points="-190.5,377.7 -190.5,384.3 -193.8,384.3 -197.2,384.3 -197.2,377.7 -197.2,371 
	-193.8,371 -190.5,371 "/>
<path id="XMLID_236_" class="st0" d="M-177.2,371c7.4,0,13.3,6,13.3,13.3h-13.3V371z"/>
</svg>
