<?xml version="1.0" encoding="utf-8"?>
<!-- Generator: Adobe Illustrator 19.0.0, SVG Export Plug-In . SVG Version: 6.00 Build 0)  -->
<svg version="1.1" id="Layer_1" xmlns="http://www.w3.org/2000/svg" xmlns:xlink="http://www.w3.org/1999/xlink" x="0px" y="0px"
	 viewBox="-282 374 46 46" style="enable-background:new -282 374 46 46;" xml:space="preserve">
<style type="text/css">
	.st0{fill:#FFFFFF;}
</style>
<path class="st0" d="M-242.3,411.6l-11.8-12.8c3.5-4.5,3.3-11-0.7-15.4c-4.5-4.9-12.1-5.2-17-0.7c-4.9,4.5-5.2,12.1-0.7,17
	c4,4.3,10.4,5.1,15.2,2.1l11.8,12.9L-242.3,411.6z M-269.4,396.8c-3-3.2-2.8-8.2,0.5-11.2c3.2-3,8.2-2.8,11.2,0.5
	c2.9,3.2,2.7,8.2-0.5,11.2S-266.4,400.1-269.4,396.8z"/>
<g>
	<text transform="matrix(1 0 0 1 -258 1144)" style="font-family:'MyriadPro-Regular'; font-size:12px;">              &lt;img src={vrain} alt=&quot;&quot; /&gt;</text>
</g>
</svg>
