<?xml version="1.0" encoding="utf-8"?>
<!-- Generator: Adobe Illustrator 19.0.0, SVG Export Plug-In . SVG Version: 6.00 Build 0)  -->
<svg version="1.0" id="Layer_1" xmlns="http://www.w3.org/2000/svg" xmlns:xlink="http://www.w3.org/1999/xlink" x="0px" y="0px"
	 viewBox="0 0 100 71" style="enable-background:new 0 0 100 71;" xml:space="preserve">
<style type="text/css">
	.st0{fill:#FFFFFF;}
</style>
<g id="XMLID_202_">
	<polygon id="XMLID_222_" class="st0" points="24.6,56.6 24.6,49.9 31.2,49.9 37.9,49.9 37.9,56.6 37.9,63.2 31.2,63.2 24.6,63.2 	
		"/>
	<polygon id="XMLID_218_" class="st0" points="11.2,43.3 11.2,36.6 17.9,36.6 24.6,36.6 24.6,43.3 24.6,49.9 17.9,49.9 11.2,49.9 	
		"/>
	<polygon id="XMLID_179_" class="st0" points="17.9,30 24.6,30 24.6,33.3 24.6,36.6 17.9,36.6 11.2,36.6 11.2,33.3 11.2,30 	"/>
	<polygon id="XMLID_180_" class="st0" points="37.9,56.6 37.9,49.9 41.2,49.9 44.5,49.9 44.5,56.6 44.5,63.2 41.2,63.2 37.9,63.2 	
		"/>
	<polygon id="XMLID_240_" class="st0" points="77.8,16.7 77.8,23.3 71.2,23.3 64.5,23.3 64.5,16.7 64.5,10 71.2,10 77.8,10 	"/>
	<polygon id="XMLID_239_" class="st0" points="91.1,30 91.1,36.6 84.5,36.6 77.8,36.6 77.8,30 77.8,23.3 84.5,23.3 91.1,23.3 	"/>
	<polygon id="XMLID_238_" class="st0" points="84.5,43.3 77.8,43.3 77.8,40 77.8,36.6 84.5,36.6 91.1,36.6 91.1,40 91.1,43.3 	"/>
	<polygon id="XMLID_237_" class="st0" points="64.5,16.7 64.5,23.3 61.2,23.3 57.8,23.3 57.8,16.7 57.8,10 61.2,10 64.5,10 	"/>
	<path id="XMLID_236_" class="st0" d="M77.8,10c7.4,0,13.3,6,13.3,13.3H77.8V10z"/>
	<path id="XMLID_315_" class="st0" d="M24.6,63.2c-7.4,0-13.3-6-13.3-13.3h13.3V63.2z"/>
</g>
</svg>
